<?xml version="1.0" encoding="utf-8"?>
<!-- Generator: Adobe Illustrator 28.4.1, SVG Export Plug-In . SVG Version: 6.00 Build 0)  -->
<svg version="1.1" id="Layer_1" xmlns="http://www.w3.org/2000/svg" xmlns:xlink="http://www.w3.org/1999/xlink" x="0px" y="0px"
	 width="579.5px" height="88.4px" viewBox="0 0 579.5 88.4" style="enable-background:new 0 0 579.5 88.4;" xml:space="preserve">
<style type="text/css">
	.Drop_x0020_Shadow{fill:none;}
	.Round_x0020_Corners_x0020_2_x0020_pt{fill:#FFFFFF;stroke:#231F20;stroke-miterlimit:10;}
	.Live_x0020_Reflect_x0020_X{fill:none;}
	.Bevel_x0020_Soft{fill:url(#SVGID_1_);}
	.Dusk{fill:#FFFFFF;}
	.Foliage_GS{fill:#FFDD00;}
	.Pompadour_GS{fill-rule:evenodd;clip-rule:evenodd;fill:#44ADE2;}
	.st0{fill:#0094FF;}
	.st1{fill:#003778;}
	.st2{opacity:0.75;fill:#FFFFFF;}
	.st3{fill:#FFFFFF;}
	.st4{opacity:0.75;}
</style>
<linearGradient id="SVGID_1_" gradientUnits="userSpaceOnUse" x1="-51.5478" y1="-236.4198" x2="-50.8406" y2="-235.7127">
	<stop  offset="0" style="stop-color:#DEDFE3"/>
	<stop  offset="0.1783" style="stop-color:#DADBDF"/>
	<stop  offset="0.3611" style="stop-color:#CECFD3"/>
	<stop  offset="0.546" style="stop-color:#B9BCBF"/>
	<stop  offset="0.7324" style="stop-color:#9CA0A2"/>
	<stop  offset="0.9181" style="stop-color:#787D7E"/>
	<stop  offset="1" style="stop-color:#656B6C"/>
</linearGradient>
<g>
	<g>
		<polygon class="st0" points="7.9,31.1 7.9,15.6 0,15.6 0,38.9 23.5,38.9 23.5,31.1 		"/>
		<polygon class="st1" points="38.9,0 0,0 0,11.7 7.8,11.7 7.8,7.8 31.1,7.8 31.1,31.1 27.2,31.1 27.2,38.9 38.9,38.9 		"/>
	</g>
	<path class="st1" d="M49.2,0h12v29h17.2v10H49.2V0L49.2,0z"/>
	<path class="st1" d="M83.6,0h30.1v10H95.6v4.9h15.6v9.3H95.6V39h-12V0L83.6,0z"/>
	<g>
		<path class="st0" d="M0.6,48.3h13.5C25.8,48.6,32,55.1,32,68c0,12.9-6.2,19.4-17.9,19.6H0.6V48.3z M4.3,84.4h7.9
			c11.2,0.1,16.1-4.7,16.1-16.5s-4.9-16.5-16.1-16.5H4.3V84.4z"/>
		<path class="st0" d="M36.7,48.3h26.9v3.2H40.4v14.2h21.7v3.2H40.4v15.5h23.5v3.2H36.7V48.3z"/>
		<path class="st0" d="M96.2,60.2c-1.3-6.1-6.3-9.5-12-9.5c-10.3,0-14.7,8.7-14.7,17.3c0,8.6,4.4,17.3,14.7,17.3
			c7.2,0,11.8-5.6,12.5-12.6h3.7c-1,9.6-7.1,15.8-16.2,15.8c-12.3,0-18.4-9.7-18.4-20.5c0-10.7,6.1-20.5,18.4-20.5
			c7.4,0,14.7,4.5,15.7,12.7H96.2z"/>
		<path class="st0" d="M104.8,48.3h26.9v3.2h-23.2v14.2h21.7v3.2h-21.7v15.5H132v3.2h-27.2V48.3z"/>
		<path class="st0" d="M135.7,48.3h4.2l22.7,33.2h0.1V48.3h3.7v39.3h-4.2l-22.7-33.2h-0.1v33.2h-3.7V48.3z"/>
		<path class="st0" d="M168.7,48.3h30.9v3.2H186v36.1h-3.7V51.5h-13.6V48.3z"/>
		<path class="st0" d="M201.9,48.3h17.9c6.4,0,11.9,3.1,11.9,10.2c0,5-2.6,9-7.6,10v0.1c5.1,0.7,6.6,4.2,6.8,8.9
			c0.2,2.7,0.2,8.1,1.8,10.1h-4.1c-0.9-1.5-0.9-4.5-1-6.1c-0.3-5.5-0.8-11.6-7.8-11.3h-14.1v17.4h-3.7V48.3z M205.6,67h13.9
			c4.5,0,8.4-2.9,8.4-7.6c0-4.8-2.8-7.8-8.4-7.8h-13.9V67z"/>
		<path class="st0" d="M248.4,48.3h4.2l15.3,39.3h-4l-4.8-12.2h-17.8l-4.7,12.2h-4L248.4,48.3z M242.5,72.2h15.3l-7.5-20.1
			L242.5,72.2z"/>
		<path class="st0" d="M270,48.3h3.7v36.1h21.8v3.2H270V48.3z"/>
		<path class="st0" d="M298.2,48.3h3.7v39.3h-3.7V48.3z"/>
		<path class="st0" d="M306.8,48.3h28.1v3.3l-25.7,32.8h26.2v3.2h-30.4v-3.3l25.7-32.8h-23.9V48.3z"/>
		<path class="st0" d="M338.7,48.3h26.9v3.2h-23.2v14.2h21.7v3.2h-21.7v15.5h23.5v3.2h-27.2V48.3z"/>
		<path class="st0" d="M369.7,48.3h13.5c11.7,0.3,17.9,6.8,17.9,19.6c0,12.9-6.2,19.4-17.9,19.6h-13.5V48.3z M373.4,84.4h7.9
			c11.2,0.1,16.1-4.7,16.1-16.5s-4.9-16.5-16.1-16.5h-7.9V84.4z"/>
		<path class="st0" d="M415.4,48.3h30.9v3.2h-13.6v36.1H429V51.5h-13.6V48.3z"/>
		<path class="st0" d="M448.6,48.3h17.9c6.4,0,11.9,3.1,11.9,10.2c0,5-2.6,9-7.6,10v0.1c5.1,0.7,6.6,4.2,6.8,8.9
			c0.2,2.7,0.2,8.1,1.8,10.1h-4.1c-0.9-1.5-0.9-4.5-1-6.1c-0.3-5.5-0.8-11.6-7.8-11.3h-14.1v17.4h-3.7V48.3z M452.3,67h13.9
			c4.5,0,8.4-2.9,8.4-7.6c0-4.8-2.8-7.8-8.4-7.8h-13.9V67z"/>
		<path class="st0" d="M483.3,48.3h3.7v24.3c-0.1,9.1,4.3,12.6,11.4,12.6c7.2,0,11.5-3.5,11.5-12.6V48.3h3.7v25.1
			c0,8.1-4.3,15-15.2,15c-10.8,0-15.1-6.9-15.1-15V48.3z"/>
		<path class="st0" d="M521.4,74.7c-0.2,8.1,5.6,10.6,12.7,10.6c4.1,0,10.3-2.3,10.3-8c0-4.5-4.4-6.2-8-7.1l-8.7-2.1
			c-4.6-1.2-8.8-3.4-8.8-9.5c0-3.9,2.5-11.1,13.4-11.1c7.7,0,14.5,4.2,14.4,12.2h-3.7c-0.2-6-5.1-9-10.7-9c-5.1,0-9.8,2-9.8,7.8
			c0,3.7,2.7,5.2,5.9,6l9.5,2.4c5.5,1.5,10.1,3.9,10.1,10.3c0,2.7-1.1,11.2-14.9,11.2c-9.2,0-16-4.2-15.6-13.8H521.4z"/>
		<path class="st0" d="M548.5,48.3h30.9v3.2h-13.6v36.1h-3.7V51.5h-13.6V48.3z"/>
	</g>
</g>
</svg>
